<svg xmlns="http://www.w3.org/2000/svg" width="512" height="512" viewBox="0 0 512 512" fill="none">
  <defs>
    <linearGradient id="fasteatMarkGradient" x1="92" y1="96" x2="401" y2="374" gradientUnits="userSpaceOnUse">
      <stop stop-color="#F2B27B"/>
      <stop offset="0.52" stop-color="#E98637"/>
      <stop offset="1" stop-color="#D96A1D"/>
    </linearGradient>
  </defs>
  <g opacity="0.24" fill="#A3A3AA">
    <path d="M72 284c18-12 40-15 67-10-13 8-29 13-48 13-8 0-14-1-19-3Z"/>
    <path d="M104 319c10-7 23-9 39-6-8 6-18 9-29 9-4 0-8-1-10-3Z"/>
    <path d="M128 261c9-8 23-11 42-8-9 7-21 10-34 10-3 0-6-1-8-2Z"/>
  </g>
  <g fill="url(#fasteatMarkGradient)">
    <path d="M246 91h157l-12 63H283l-11 53h131l-14 66H258l-17 94h15c17 0 26 20 14 31l-43 40c-8 7-18 11-29 11h-66c-17 0-26-20-14-31l43-40c8-7 18-11 29-11h11l16-94h-79c-9 0-11-13-2-15l111-27c10-2 9-16-1-17l-121-15c-9-1-10-14-1-16l146-25 9-47c2-10 10-17 20-17Z"/>
    <path d="M345 355c26-22 60-25 83-15 36 15 57 51 61 98 1 11-13 16-21 8-15-15-40-18-58-7-5-32-10-61-65-84Z"/>
    <path d="M361 282c11-5 25-7 38-4 11 3 15 15 14 28-2 19-9 35-20 47-4 4-11 1-11-5 1-20-4-40-21-58Z"/>
    <path d="M153 389c0-48 39-87 87-87 36 0 67 22 80 53 4 10-3 21-14 21H167c-8 0-14 6-14 13Z"/>
    <circle cx="228" cy="409" r="48"/>
    <circle cx="424" cy="409" r="48"/>
  </g>
  <g fill="#F5F5F4" opacity="0.92">
    <circle cx="228" cy="409" r="21"/>
    <circle cx="424" cy="409" r="21"/>
  </g>
</svg>