<svg xmlns="http://www.w3.org/2000/svg" width="1024" height="1024" viewBox="0 0 1024 1024" fill="none">
  <defs>
    <linearGradient id="fasteatCardBg" x1="106" y1="80" x2="932" y2="962" gradientUnits="userSpaceOnUse">
      <stop stop-color="#F8F8FB"/>
      <stop offset="0.68" stop-color="#E9EBF2"/>
      <stop offset="1" stop-color="#E2E6EF"/>
    </linearGradient>
    <linearGradient id="fasteatCardSheen" x1="182" y1="208" x2="817" y2="742" gradientUnits="userSpaceOnUse">
      <stop stop-color="#FFFFFF" stop-opacity="0.86"/>
      <stop offset="1" stop-color="#FFFFFF" stop-opacity="0"/>
    </linearGradient>
    <linearGradient id="fasteatIconGradient" x1="198" y1="192" x2="757" y2="687" gradientUnits="userSpaceOnUse">
      <stop stop-color="#F2B27B"/>
      <stop offset="0.54" stop-color="#E98637"/>
      <stop offset="1" stop-color="#D96A1D"/>
    </linearGradient>
    <filter id="fasteatCardShadow" x="35" y="43" width="954" height="954" filterUnits="userSpaceOnUse" color-interpolation-filters="sRGB">
      <feFlood flood-opacity="0" result="BackgroundImageFix"/>
      <feColorMatrix in="SourceAlpha" type="matrix" values="0 0 0 0 0 0 0 0 0 0 0 0 0 0 0 0 0 0 127 0" result="hardAlpha"/>
      <feOffset dy="18"/>
      <feGaussianBlur stdDeviation="22"/>
      <feColorMatrix type="matrix" values="0 0 0 0 0.45 0 0 0 0 0.47 0 0 0 0 0.56 0 0 0 0.28 0"/>
      <feBlend mode="normal" in2="BackgroundImageFix" result="effect1_dropShadow_1_1"/>
      <feBlend mode="normal" in="SourceGraphic" in2="effect1_dropShadow_1_1" result="shape"/>
    </filter>
  </defs>
  <g filter="url(#fasteatCardShadow)">
    <rect x="79" y="69" width="866" height="866" rx="108" fill="url(#fasteatCardBg)"/>
    <rect x="89" y="79" width="846" height="846" rx="98" stroke="#FFFFFF" stroke-opacity="0.55" stroke-width="8"/>
    <ellipse cx="510" cy="769" rx="296" ry="40" fill="#D8DCE6" fill-opacity="0.55"/>
    <path d="M168 812c78-41 156-38 235 10-92 6-170 6-235-10Z" fill="#ABB2C2" fill-opacity="0.28"/>
    <path d="M841 169c-78 12-145 52-202 120 81-19 149-59 202-120Z" fill="url(#fasteatCardSheen)" fill-opacity="0.56"/>
    <g opacity="0.24" fill="#A3A3AA">
      <path d="M178 542c36-23 80-29 134-20-26 17-58 25-95 25-14 0-27-2-39-5Z"/>
      <path d="M240 611c21-14 46-18 77-12-17 12-36 18-57 18-8 0-15-2-20-6Z"/>
      <path d="M283 489c18-15 45-21 84-16-19 14-41 21-67 21-7 0-13-2-17-5Z"/>
    </g>
    <g fill="url(#fasteatIconGradient)">
      <path d="M463 179h288l-22 116H531l-20 97h241l-25 122H484l-32 173h27c31 0 47 36 25 56l-79 73c-14 13-33 20-53 20H250c-31 0-47-36-25-56l79-73c14-13 33-20 53-20h21l29-173H263c-17 0-21-24-4-28l203-49c19-5 17-29-3-32l-223-27c-16-2-18-25-2-29l271-46 17-86c4-18 18-31 35-31Z"/>
      <path d="M650 667c48-41 109-47 151-30 64 27 100 89 107 170 2 18-23 27-36 14-27-28-72-32-104-13-8-54-20-106-118-141Z"/>
      <path d="M679 543c20-10 45-12 69-7 19 6 28 26 25 49-4 34-17 62-37 83-8 8-21 3-21-8 1-35-8-70-36-117Z"/>
      <path d="M327 729c0-83 67-150 150-150 63 0 116 38 139 92 8 18-6 37-24 37H351c-13 0-24 10-24 21Z"/>
      <circle cx="473" cy="764" r="84"/>
      <circle cx="797" cy="764" r="84"/>
    </g>
    <g fill="#F5F5F4" opacity="0.94">
      <circle cx="473" cy="764" r="38"/>
      <circle cx="797" cy="764" r="38"/>
    </g>
  </g>
</svg>